<mxfile host="app.diagrams.net" agent="Mozilla/5.0 (Macintosh; Intel Mac OS X 10_15_7) AppleWebKit/537.36 (KHTML, like Gecko) Chrome/133.0.0.0 Safari/537.36" version="26.0.11">
  <diagram name="Page-1" id="tjJ1cWkLdP63_gCzhQE7">
    <mxGraphModel dx="1434" dy="907" grid="1" gridSize="10" guides="1" tooltips="1" connect="1" arrows="1" fold="1" page="1" pageScale="1" pageWidth="850" pageHeight="1100" math="0" shadow="0">
      <root>
        <mxCell id="0" />
        <mxCell id="1" parent="0" />
        <mxCell id="19ENwZ6T9eExUNmLZDki-1" value="" style="shape=table;startSize=0;container=1;collapsible=0;childLayout=tableLayout;fontSize=16;fillColor=#f5f5f5;strokeColor=#666666;fontColor=#333333;sketch=1;curveFitting=1;jiggle=2;" vertex="1" parent="1">
          <mxGeometry x="150" y="290" width="693" height="400" as="geometry" />
        </mxCell>
        <mxCell id="19ENwZ6T9eExUNmLZDki-18" style="shape=tableRow;horizontal=0;startSize=0;swimlaneHead=0;swimlaneBody=0;strokeColor=inherit;top=0;left=0;bottom=0;right=0;collapsible=0;dropTarget=0;fillColor=none;points=[[0,0.5],[1,0.5]];portConstraint=eastwest;fontSize=16;" vertex="1" parent="19ENwZ6T9eExUNmLZDki-1">
          <mxGeometry width="693" height="80" as="geometry" />
        </mxCell>
        <mxCell id="19ENwZ6T9eExUNmLZDki-23" style="shape=partialRectangle;html=1;whiteSpace=wrap;connectable=0;strokeColor=#82b366;overflow=hidden;fillColor=#d5e8d4;top=0;left=0;bottom=0;right=0;pointerEvents=1;fontSize=16;" vertex="1" parent="19ENwZ6T9eExUNmLZDki-18">
          <mxGeometry width="139" height="80" as="geometry">
            <mxRectangle width="139" height="80" as="alternateBounds" />
          </mxGeometry>
        </mxCell>
        <mxCell id="19ENwZ6T9eExUNmLZDki-19" style="shape=partialRectangle;html=1;whiteSpace=wrap;connectable=0;strokeColor=#82b366;overflow=hidden;fillColor=#d5e8d4;top=0;left=0;bottom=0;right=0;pointerEvents=1;fontSize=16;" vertex="1" parent="19ENwZ6T9eExUNmLZDki-18">
          <mxGeometry x="139" width="139" height="80" as="geometry">
            <mxRectangle width="139" height="80" as="alternateBounds" />
          </mxGeometry>
        </mxCell>
        <mxCell id="19ENwZ6T9eExUNmLZDki-20" style="shape=partialRectangle;html=1;whiteSpace=wrap;connectable=0;strokeColor=inherit;overflow=hidden;fillColor=none;top=0;left=0;bottom=0;right=0;pointerEvents=1;fontSize=16;" vertex="1" parent="19ENwZ6T9eExUNmLZDki-18">
          <mxGeometry x="278" width="139" height="80" as="geometry">
            <mxRectangle width="139" height="80" as="alternateBounds" />
          </mxGeometry>
        </mxCell>
        <mxCell id="19ENwZ6T9eExUNmLZDki-21" style="shape=partialRectangle;html=1;whiteSpace=wrap;connectable=0;strokeColor=inherit;overflow=hidden;fillColor=none;top=0;left=0;bottom=0;right=0;pointerEvents=1;fontSize=16;" vertex="1" parent="19ENwZ6T9eExUNmLZDki-18">
          <mxGeometry x="417" width="136" height="80" as="geometry">
            <mxRectangle width="136" height="80" as="alternateBounds" />
          </mxGeometry>
        </mxCell>
        <mxCell id="19ENwZ6T9eExUNmLZDki-22" style="shape=partialRectangle;html=1;whiteSpace=wrap;connectable=0;strokeColor=inherit;overflow=hidden;fillColor=none;top=0;left=0;bottom=0;right=0;pointerEvents=1;fontSize=16;" vertex="1" parent="19ENwZ6T9eExUNmLZDki-18">
          <mxGeometry x="553" width="140" height="80" as="geometry">
            <mxRectangle width="140" height="80" as="alternateBounds" />
          </mxGeometry>
        </mxCell>
        <mxCell id="19ENwZ6T9eExUNmLZDki-2" value="" style="shape=tableRow;horizontal=0;startSize=0;swimlaneHead=0;swimlaneBody=0;strokeColor=inherit;top=0;left=0;bottom=0;right=0;collapsible=0;dropTarget=0;fillColor=none;points=[[0,0.5],[1,0.5]];portConstraint=eastwest;fontSize=16;" vertex="1" parent="19ENwZ6T9eExUNmLZDki-1">
          <mxGeometry y="80" width="693" height="80" as="geometry" />
        </mxCell>
        <mxCell id="19ENwZ6T9eExUNmLZDki-24" style="shape=partialRectangle;html=1;whiteSpace=wrap;connectable=0;strokeColor=inherit;overflow=hidden;fillColor=none;top=0;left=0;bottom=0;right=0;pointerEvents=1;fontSize=16;" vertex="1" parent="19ENwZ6T9eExUNmLZDki-2">
          <mxGeometry width="139" height="80" as="geometry">
            <mxRectangle width="139" height="80" as="alternateBounds" />
          </mxGeometry>
        </mxCell>
        <mxCell id="19ENwZ6T9eExUNmLZDki-15" style="shape=partialRectangle;html=1;whiteSpace=wrap;connectable=0;strokeColor=#82b366;overflow=hidden;fillColor=#d5e8d4;top=0;left=0;bottom=0;right=0;pointerEvents=1;fontSize=16;" vertex="1" parent="19ENwZ6T9eExUNmLZDki-2">
          <mxGeometry x="139" width="139" height="80" as="geometry">
            <mxRectangle width="139" height="80" as="alternateBounds" />
          </mxGeometry>
        </mxCell>
        <mxCell id="19ENwZ6T9eExUNmLZDki-3" value="" style="shape=partialRectangle;html=1;whiteSpace=wrap;connectable=0;strokeColor=#82b366;overflow=hidden;fillColor=#d5e8d4;top=0;left=0;bottom=0;right=0;pointerEvents=1;fontSize=16;" vertex="1" parent="19ENwZ6T9eExUNmLZDki-2">
          <mxGeometry x="278" width="139" height="80" as="geometry">
            <mxRectangle width="139" height="80" as="alternateBounds" />
          </mxGeometry>
        </mxCell>
        <mxCell id="19ENwZ6T9eExUNmLZDki-4" value="" style="shape=partialRectangle;html=1;whiteSpace=wrap;connectable=0;strokeColor=inherit;overflow=hidden;fillColor=none;top=0;left=0;bottom=0;right=0;pointerEvents=1;fontSize=16;" vertex="1" parent="19ENwZ6T9eExUNmLZDki-2">
          <mxGeometry x="417" width="136" height="80" as="geometry">
            <mxRectangle width="136" height="80" as="alternateBounds" />
          </mxGeometry>
        </mxCell>
        <mxCell id="19ENwZ6T9eExUNmLZDki-5" value="" style="shape=partialRectangle;html=1;whiteSpace=wrap;connectable=0;strokeColor=inherit;overflow=hidden;fillColor=none;top=0;left=0;bottom=0;right=0;pointerEvents=1;fontSize=16;" vertex="1" parent="19ENwZ6T9eExUNmLZDki-2">
          <mxGeometry x="553" width="140" height="80" as="geometry">
            <mxRectangle width="140" height="80" as="alternateBounds" />
          </mxGeometry>
        </mxCell>
        <mxCell id="19ENwZ6T9eExUNmLZDki-6" value="" style="shape=tableRow;horizontal=0;startSize=0;swimlaneHead=0;swimlaneBody=0;strokeColor=inherit;top=0;left=0;bottom=0;right=0;collapsible=0;dropTarget=0;fillColor=none;points=[[0,0.5],[1,0.5]];portConstraint=eastwest;fontSize=16;" vertex="1" parent="19ENwZ6T9eExUNmLZDki-1">
          <mxGeometry y="160" width="693" height="80" as="geometry" />
        </mxCell>
        <mxCell id="19ENwZ6T9eExUNmLZDki-25" style="shape=partialRectangle;html=1;whiteSpace=wrap;connectable=0;strokeColor=inherit;overflow=hidden;fillColor=none;top=0;left=0;bottom=0;right=0;pointerEvents=1;fontSize=16;" vertex="1" parent="19ENwZ6T9eExUNmLZDki-6">
          <mxGeometry width="139" height="80" as="geometry">
            <mxRectangle width="139" height="80" as="alternateBounds" />
          </mxGeometry>
        </mxCell>
        <mxCell id="19ENwZ6T9eExUNmLZDki-16" style="shape=partialRectangle;html=1;whiteSpace=wrap;connectable=0;strokeColor=inherit;overflow=hidden;fillColor=none;top=0;left=0;bottom=0;right=0;pointerEvents=1;fontSize=16;" vertex="1" parent="19ENwZ6T9eExUNmLZDki-6">
          <mxGeometry x="139" width="139" height="80" as="geometry">
            <mxRectangle width="139" height="80" as="alternateBounds" />
          </mxGeometry>
        </mxCell>
        <mxCell id="19ENwZ6T9eExUNmLZDki-7" value="" style="shape=partialRectangle;html=1;whiteSpace=wrap;connectable=0;strokeColor=#82b366;overflow=hidden;fillColor=#d5e8d4;top=0;left=0;bottom=0;right=0;pointerEvents=1;fontSize=16;" vertex="1" parent="19ENwZ6T9eExUNmLZDki-6">
          <mxGeometry x="278" width="139" height="80" as="geometry">
            <mxRectangle width="139" height="80" as="alternateBounds" />
          </mxGeometry>
        </mxCell>
        <mxCell id="19ENwZ6T9eExUNmLZDki-8" value="" style="shape=partialRectangle;html=1;whiteSpace=wrap;connectable=0;strokeColor=#82b366;overflow=hidden;fillColor=#d5e8d4;top=0;left=0;bottom=0;right=0;pointerEvents=1;fontSize=16;" vertex="1" parent="19ENwZ6T9eExUNmLZDki-6">
          <mxGeometry x="417" width="136" height="80" as="geometry">
            <mxRectangle width="136" height="80" as="alternateBounds" />
          </mxGeometry>
        </mxCell>
        <mxCell id="19ENwZ6T9eExUNmLZDki-9" value="" style="shape=partialRectangle;html=1;whiteSpace=wrap;connectable=0;strokeColor=inherit;overflow=hidden;fillColor=none;top=0;left=0;bottom=0;right=0;pointerEvents=1;fontSize=16;" vertex="1" parent="19ENwZ6T9eExUNmLZDki-6">
          <mxGeometry x="553" width="140" height="80" as="geometry">
            <mxRectangle width="140" height="80" as="alternateBounds" />
          </mxGeometry>
        </mxCell>
        <mxCell id="19ENwZ6T9eExUNmLZDki-10" value="" style="shape=tableRow;horizontal=0;startSize=0;swimlaneHead=0;swimlaneBody=0;strokeColor=inherit;top=0;left=0;bottom=0;right=0;collapsible=0;dropTarget=0;fillColor=none;points=[[0,0.5],[1,0.5]];portConstraint=eastwest;fontSize=16;" vertex="1" parent="19ENwZ6T9eExUNmLZDki-1">
          <mxGeometry y="240" width="693" height="80" as="geometry" />
        </mxCell>
        <mxCell id="19ENwZ6T9eExUNmLZDki-26" style="shape=partialRectangle;html=1;whiteSpace=wrap;connectable=0;strokeColor=inherit;overflow=hidden;fillColor=none;top=0;left=0;bottom=0;right=0;pointerEvents=1;fontSize=16;" vertex="1" parent="19ENwZ6T9eExUNmLZDki-10">
          <mxGeometry width="139" height="80" as="geometry">
            <mxRectangle width="139" height="80" as="alternateBounds" />
          </mxGeometry>
        </mxCell>
        <mxCell id="19ENwZ6T9eExUNmLZDki-17" style="shape=partialRectangle;html=1;whiteSpace=wrap;connectable=0;strokeColor=inherit;overflow=hidden;fillColor=none;top=0;left=0;bottom=0;right=0;pointerEvents=1;fontSize=16;" vertex="1" parent="19ENwZ6T9eExUNmLZDki-10">
          <mxGeometry x="139" width="139" height="80" as="geometry">
            <mxRectangle width="139" height="80" as="alternateBounds" />
          </mxGeometry>
        </mxCell>
        <mxCell id="19ENwZ6T9eExUNmLZDki-11" value="" style="shape=partialRectangle;html=1;whiteSpace=wrap;connectable=0;strokeColor=inherit;overflow=hidden;fillColor=none;top=0;left=0;bottom=0;right=0;pointerEvents=1;fontSize=16;" vertex="1" parent="19ENwZ6T9eExUNmLZDki-10">
          <mxGeometry x="278" width="139" height="80" as="geometry">
            <mxRectangle width="139" height="80" as="alternateBounds" />
          </mxGeometry>
        </mxCell>
        <mxCell id="19ENwZ6T9eExUNmLZDki-12" value="" style="shape=partialRectangle;html=1;whiteSpace=wrap;connectable=0;strokeColor=#82b366;overflow=hidden;fillColor=#d5e8d4;top=0;left=0;bottom=0;right=0;pointerEvents=1;fontSize=16;" vertex="1" parent="19ENwZ6T9eExUNmLZDki-10">
          <mxGeometry x="417" width="136" height="80" as="geometry">
            <mxRectangle width="136" height="80" as="alternateBounds" />
          </mxGeometry>
        </mxCell>
        <mxCell id="19ENwZ6T9eExUNmLZDki-13" value="" style="shape=partialRectangle;html=1;whiteSpace=wrap;connectable=0;strokeColor=#82b366;overflow=hidden;fillColor=#d5e8d4;top=0;left=0;bottom=0;right=0;pointerEvents=1;fontSize=16;" vertex="1" parent="19ENwZ6T9eExUNmLZDki-10">
          <mxGeometry x="553" width="140" height="80" as="geometry">
            <mxRectangle width="140" height="80" as="alternateBounds" />
          </mxGeometry>
        </mxCell>
        <mxCell id="19ENwZ6T9eExUNmLZDki-27" style="shape=tableRow;horizontal=0;startSize=0;swimlaneHead=0;swimlaneBody=0;strokeColor=inherit;top=0;left=0;bottom=0;right=0;collapsible=0;dropTarget=0;fillColor=none;points=[[0,0.5],[1,0.5]];portConstraint=eastwest;fontSize=16;" vertex="1" parent="19ENwZ6T9eExUNmLZDki-1">
          <mxGeometry y="320" width="693" height="80" as="geometry" />
        </mxCell>
        <mxCell id="19ENwZ6T9eExUNmLZDki-28" style="shape=partialRectangle;html=1;whiteSpace=wrap;connectable=0;strokeColor=inherit;overflow=hidden;fillColor=none;top=0;left=0;bottom=0;right=0;pointerEvents=1;fontSize=16;" vertex="1" parent="19ENwZ6T9eExUNmLZDki-27">
          <mxGeometry width="139" height="80" as="geometry">
            <mxRectangle width="139" height="80" as="alternateBounds" />
          </mxGeometry>
        </mxCell>
        <mxCell id="19ENwZ6T9eExUNmLZDki-29" style="shape=partialRectangle;html=1;whiteSpace=wrap;connectable=0;strokeColor=inherit;overflow=hidden;fillColor=none;top=0;left=0;bottom=0;right=0;pointerEvents=1;fontSize=16;" vertex="1" parent="19ENwZ6T9eExUNmLZDki-27">
          <mxGeometry x="139" width="139" height="80" as="geometry">
            <mxRectangle width="139" height="80" as="alternateBounds" />
          </mxGeometry>
        </mxCell>
        <mxCell id="19ENwZ6T9eExUNmLZDki-30" style="shape=partialRectangle;html=1;whiteSpace=wrap;connectable=0;strokeColor=inherit;overflow=hidden;fillColor=none;top=0;left=0;bottom=0;right=0;pointerEvents=1;fontSize=16;" vertex="1" parent="19ENwZ6T9eExUNmLZDki-27">
          <mxGeometry x="278" width="139" height="80" as="geometry">
            <mxRectangle width="139" height="80" as="alternateBounds" />
          </mxGeometry>
        </mxCell>
        <mxCell id="19ENwZ6T9eExUNmLZDki-31" style="shape=partialRectangle;html=1;whiteSpace=wrap;connectable=0;strokeColor=inherit;overflow=hidden;fillColor=none;top=0;left=0;bottom=0;right=0;pointerEvents=1;fontSize=16;" vertex="1" parent="19ENwZ6T9eExUNmLZDki-27">
          <mxGeometry x="417" width="136" height="80" as="geometry">
            <mxRectangle width="136" height="80" as="alternateBounds" />
          </mxGeometry>
        </mxCell>
        <mxCell id="19ENwZ6T9eExUNmLZDki-32" value="max_element" style="shape=partialRectangle;html=1;whiteSpace=wrap;connectable=0;strokeColor=#82b366;overflow=hidden;fillColor=#d5e8d4;top=0;left=0;bottom=0;right=0;pointerEvents=1;fontSize=16;" vertex="1" parent="19ENwZ6T9eExUNmLZDki-27">
          <mxGeometry x="553" width="140" height="80" as="geometry">
            <mxRectangle width="140" height="80" as="alternateBounds" />
          </mxGeometry>
        </mxCell>
      </root>
    </mxGraphModel>
  </diagram>
</mxfile>
